<?xml version="1.0" encoding="UTF-8"?>
<svg width="160px" height="60px" viewBox="0 0 160 60" version="1.1" xmlns="http://www.w3.org/2000/svg" xmlns:xlink="http://www.w3.org/1999/xlink">
    <!-- Generator: Sketch 56.3 (81716) - https://sketch.com -->
    <title>logo</title>
    <desc>Created with Sketch.</desc>
    <g id="logo" stroke="none" stroke-width="1" fill="none" fill-rule="evenodd">
        <path d="M110,55.4969574 C108.341256,57.146729 106.505788,58.3096653 104.493542,58.9858012 C102.481295,59.6619371 100.142773,60 97.4779062,60 C93.6437606,60 90.659426,59.317113 88.5248131,57.9513185 C86.3902001,56.5855239 85.0781806,54.2664126 84.5887152,50.9939148 L83.3242692,42.7180527 C82.7532262,38.8235099 81.991847,35.8823629 81.0401088,33.8945233 C80.0883705,31.9066838 78.6335924,30.9127789 76.6757308,30.9127789 L72.8823929,30.9127789 L72.8823929,50.020284 C72.8823929,52.1027826 73.0319496,53.6173043 73.3310673,54.5638945 C73.630185,55.5104848 74.1808254,56.1595655 74.9830048,56.5111562 C75.7851842,56.8627469 77.0700116,57.0791071 78.8375255,57.1602434 L78.8375255,58.8235294 C75.5744228,58.6612568 70.9245713,58.5801217 64.8878314,58.5801217 C58.1440859,58.5801217 53.1815251,58.6612568 50,58.8235294 L50,57.1602434 C51.7947065,57.0791071 53.0931299,56.8627469 53.8953093,56.5111562 C54.6974887,56.1595655 55.241331,55.5104848 55.5268525,54.5638945 C55.812374,53.6173043 55.9551326,52.1027826 55.9551326,50.020284 L55.9551326,8.80324544 C55.9551326,6.72074686 55.8055759,5.20622515 55.5064582,4.25963489 C55.2073404,3.31304462 54.6567001,2.66396389 53.8545207,2.31237323 C53.0523413,1.96078256 51.7675139,1.74442231 50,1.663286 L50,0 C53.1815251,0.162272617 57.9809332,0.243407708 64.3983685,0.243407708 C66.6825403,0.243407708 69.225003,0.216362677 72.0258328,0.162271805 C74.8266625,0.108180933 76.7573027,0.0811359026 77.817811,0.0811359026 C86.3018779,0.0811359026 92.6172464,1.26435598 96.7641061,3.63083164 C100.910966,5.9973073 102.984364,9.62810264 102.984364,14.5233266 C102.984364,18.6883237 101.420818,22.237984 98.2936778,25.1724138 C95.1665377,28.1068436 89.9184597,29.9256219 82.5492862,30.6288032 C88.2325233,30.9533485 92.5356754,31.9878209 95.4588715,33.7322515 C98.3820676,35.4766822 100.169949,38.0527213 100.82257,41.4604462 L102.576479,50.1014199 C102.984366,52.1298276 103.467026,53.5361692 104.024473,54.3204868 C104.58192,55.1048045 105.350097,55.4969574 106.329028,55.4969574 C107.335151,55.4969574 108.191703,55.1318495 108.898708,54.4016227 L110,55.4969574 Z M75.3636364,29 C78.1775032,29 80.3652519,28.3960845 81.9269481,27.1882353 C83.4886442,25.9803861 84.5578975,24.3607945 85.1347403,22.3294118 C85.711583,20.2980291 86,17.8549162 86,15 C86,10.3882122 85.3528203,6.90197259 84.0584416,4.54117647 C82.7640628,2.18038035 80.6396252,1 77.6850649,1 C76.3625475,1 75.3706743,1.19901762 74.7094156,1.59705882 C74.0481569,1.99510003 73.5979449,2.70195571 73.3587662,3.71764706 C73.1195875,4.73333841 73,6.24312724 73,8.24705882 L73,29 L75.3636364,29 Z" id="R" fill="#2B2B2B" fill-rule="nonzero"></path>
    </g>
</svg>